<?xml version="1.0" encoding="UTF-8"?>
<svg width="28px" height="32px" viewBox="0 0 28 32" version="1.1" xmlns="http://www.w3.org/2000/svg" xmlns:xlink="http://www.w3.org/1999/xlink">
    <!-- Generator: Sketch 51.2 (57519) - http://www.bohemiancoding.com/sketch -->
    <title>signMark</title>
    <desc>Created with Sketch.</desc>
    <defs></defs>
    <g id="Page-1" stroke="none" stroke-width="1" fill="none" fill-rule="evenodd">
        <g id="signMark" transform="translate(0.000000, -1.000000)" fill="#0595DB" fill-rule="nonzero">
            <path d="M27.484375,2.273438 C27.432291,2.820315 27.243491,3.230467 26.917969,3.503906 C26.592446,3.777345 26.221356,4.05729 25.804688,4.34375 C25.25781,5.151046 24.678388,5.932288 24.066406,6.6875 C23.454424,7.442712 22.82943,8.191403 22.191406,8.933594 C21.553382,9.675785 20.928388,10.430986 20.316406,11.199219 C19.704424,11.967452 19.151044,12.768225 18.65625,13.601562 C18.057289,14.044273 17.52344,14.532549 17.054688,15.066406 C16.585935,15.600263 16.130211,16.147133 15.6875,16.707031 C15.244789,17.26693 14.808596,17.839841 14.378906,18.425781 C13.949217,19.011722 13.500002,19.565102 13.03125,20.085938 C13.187501,20.710941 13.460936,21.205727 13.851562,21.570312 C14.242189,21.934898 14.671873,22.266926 15.140625,22.566406 C15.609377,22.865887 16.065102,23.184894 16.507812,23.523438 C16.950523,23.861981 17.289061,24.304685 17.523438,24.851562 C18.304691,24.981771 19.066403,25.183592 19.808594,25.457031 C20.550785,25.73047 21.325517,25.867188 22.132812,25.867188 C22.731774,25.867188 23.304685,25.710939 23.851562,25.398438 C24.085939,25.450521 24.326822,25.541666 24.574219,25.671875 C24.821616,25.802084 25.08854,25.867188 25.375,25.867188 C25.609376,25.867188 25.843749,25.750001 26.078125,25.515625 C26.130209,25.59375 26.182291,25.691406 26.234375,25.808594 C26.286459,25.925782 26.377604,25.984375 26.507812,25.984375 C26.559896,25.984375 26.605469,25.977865 26.644531,25.964844 C26.683594,25.951823 26.716146,25.945312 26.742188,25.945312 L26.742188,26.570312 C26.742188,26.804689 26.755208,27.032551 26.78125,27.253906 C26.807292,27.475262 26.859375,27.703124 26.9375,27.9375 C26.729166,27.9375 26.559896,27.976562 26.429688,28.054688 L26.078125,28.289062 C25.973958,28.367188 25.843751,28.432291 25.6875,28.484375 C25.531249,28.536459 25.322918,28.536459 25.0625,28.484375 C24.906249,28.510417 24.808594,28.588541 24.769531,28.71875 C24.730469,28.848959 24.645834,28.953125 24.515625,29.03125 C24.333332,29.161459 24.092449,29.226562 23.792969,29.226562 C23.493488,29.226562 23.226564,29.291666 22.992188,29.421875 L21.664062,29.5 C21.221352,29.526042 20.778648,29.539062 20.335938,29.539062 C20.07552,29.539062 19.763023,29.532552 19.398438,29.519531 C19.033852,29.50651 18.669273,29.480469 18.304688,29.441406 C17.940102,29.402344 17.588543,29.350261 17.25,29.285156 C16.911457,29.220052 16.625001,29.135417 16.390625,29.03125 C15.531246,28.614581 14.697921,28.093753 13.890625,27.46875 C13.083329,26.843747 12.302087,26.231774 11.546875,25.632812 L10.921875,25.085938 C10.713541,24.903645 10.492189,24.734376 10.257812,24.578125 C10.231771,24.552083 10.166667,24.539062 10.0625,24.539062 C9.932291,24.539062 9.821615,24.565104 9.730469,24.617188 C9.639322,24.669271 9.541667,24.695312 9.4375,24.695312 C9.333333,24.695312 9.28125,24.65625 9.28125,24.578125 C8.473954,25.359379 7.718754,26.192704 7.015625,27.078125 L4.90625,29.734375 C4.90625,29.942709 4.958333,30.111979 5.0625,30.242188 L5.375,30.59375 C5.479167,30.697917 5.576822,30.815104 5.667969,30.945312 C5.759115,31.075521 5.804688,31.244791 5.804688,31.453125 C5.804688,31.609376 5.791667,31.739583 5.765625,31.84375 C5.531249,31.921875 5.257814,31.973958 4.945312,32 C4.632811,32.026042 4.313804,32.071614 3.988281,32.136719 C3.662759,32.201823 3.369793,32.292968 3.109375,32.410156 C2.848957,32.527344 2.666667,32.716145 2.5625,32.976562 C2.380207,32.924479 2.217449,32.872396 2.074219,32.820312 C1.930989,32.768229 1.755209,32.755208 1.546875,32.78125 C1.338541,32.520832 1.123699,32.253908 0.902344,31.980469 C0.680988,31.70703 0.479168,31.414064 0.296875,31.101562 C0.270833,30.91927 0.251302,30.74349 0.238281,30.574219 C0.22526,30.404947 0.21875,30.229168 0.21875,30.046875 C0.21875,29.447914 0.309895,28.907554 0.492188,28.425781 C0.67448,27.944008 0.882811,27.442711 1.117188,26.921875 C1.559898,26.713541 1.97005,26.485678 2.347656,26.238281 C2.725262,25.990884 2.979166,25.619794 3.109375,25.125 C3.447918,25.098958 3.727863,24.988282 3.949219,24.792969 C4.170574,24.597655 4.378905,24.382814 4.574219,24.148438 C4.769532,23.914061 4.971353,23.70573 5.179688,23.523438 C5.388022,23.341145 5.674477,23.223959 6.039062,23.171875 C6.039062,23.119791 6.032552,23.067709 6.019531,23.015625 C6.00651,22.963541 6,22.911459 6,22.859375 C6,22.677082 6.039062,22.540365 6.117188,22.449219 C6.195313,22.358072 6.292968,22.279948 6.410156,22.214844 C6.527344,22.149739 6.644531,22.091146 6.761719,22.039062 C6.878907,21.986979 6.976562,21.895834 7.054688,21.765625 C6.95052,21.479165 6.839844,21.20573 6.722656,20.945312 C6.605468,20.684895 6.468751,20.437501 6.3125,20.203125 C6.052082,19.812498 5.778647,19.434898 5.492188,19.070312 L4.632812,17.976562 C4.502604,17.79427 4.339845,17.631511 4.144531,17.488281 C3.949218,17.345051 3.786459,17.169272 3.65625,16.960938 C3.526041,16.752603 3.447917,16.51823 3.421875,16.257812 C3.395833,15.997395 3.33073,15.763022 3.226562,15.554688 C3.096354,15.29427 2.933595,15.053387 2.738281,14.832031 C2.542968,14.610676 2.445312,14.330731 2.445312,13.992188 C2.445312,13.809895 2.484375,13.640626 2.5625,13.484375 C2.27604,13.197915 2.067709,12.852867 1.9375,12.449219 C1.807291,12.045571 1.742188,11.648439 1.742188,11.257812 C1.742188,10.893227 1.79427,10.522137 1.898438,10.144531 C2.002605,9.766925 2.171874,9.421877 2.40625,9.109375 L2.757812,9.109375 C2.888021,9.109375 2.953125,9.070313 2.953125,8.992188 C3.109376,9.096355 3.285155,9.1875 3.480469,9.265625 C3.675782,9.34375 3.786458,9.486978 3.8125,9.695312 C4.046876,9.721354 4.281249,9.760416 4.515625,9.8125 L5.21875,9.96875 C5.635419,10.593753 6.013019,11.231768 6.351562,11.882812 C6.690106,12.533857 7.035154,13.184893 7.386719,13.835938 C7.738283,14.486982 8.109373,15.124997 8.5,15.75 C8.890627,16.375003 9.333331,16.960935 9.828125,17.507812 C10.218752,17.351562 10.55729,17.117189 10.84375,16.804688 C11.13021,16.492186 11.397134,16.166668 11.644531,15.828125 C11.891928,15.489582 12.158853,15.164064 12.445312,14.851562 C12.731772,14.539061 13.070311,14.304688 13.460938,14.148438 C13.434896,14.122396 13.421875,14.083334 13.421875,14.03125 C13.421875,13.901041 13.467447,13.803386 13.558594,13.738281 C13.64974,13.673177 13.669271,13.536459 13.617188,13.328125 C14.138023,12.96354 14.619789,12.572919 15.0625,12.15625 C15.505211,11.739581 15.817707,11.192712 16,10.515625 L16.546875,10.515625 C17.171878,9.682288 17.803382,8.848962 18.441406,8.015625 C19.07943,7.182288 19.802079,6.427087 20.609375,5.75 L20.609375,5.203125 C21.026044,4.942707 21.390623,4.636721 21.703125,4.285156 C22.015627,3.933592 22.315103,3.569012 22.601562,3.191406 C22.888022,2.8138 23.167967,2.429689 23.441406,2.039062 C23.714845,1.648436 24.033852,1.296877 24.398438,0.984375 C24.658855,1.114584 24.93229,1.205729 25.21875,1.257812 C25.50521,1.309896 25.785155,1.375 26.058594,1.453125 C26.332033,1.53125 26.592447,1.628906 26.839844,1.746094 C27.087241,1.863282 27.302082,2.039061 27.484375,2.273438 Z" id="x"></path>
        </g>
    </g>
</svg>